{
  "source": "C:\\Users\\Peter\\Desktop\\stuff\\MIUN\\quantitative_research\\video_compression\\videos\\UVG\\Beauty_1920x1080_120fps_420_8bit_YUV.y4m",
  "output": "C:\\Users\\Peter\\Desktop\\stuff\\MIUN\\quantitative_research\\video_compression\\compressed_videos\\UVG\\h264\\2\\Beauty_1920x1080_120fps_420_8bit_YUV_h264.mp4",
  "codec": "h264",
  "ok": "[yuv4mpegpipe @ 000001e418225e00] Stream #0: not enough frames to estimate rate; consider increasing probesize\nInput #0, yuv4mpegpipe, from 'C:\\Users\\Peter\\Desktop\\stuff\\MIUN\\quantitative_research\\video_compression\\videos\\UVG\\Beauty_1920x1080_120fps_420_8bit_YUV.y4m':\n  Duration: 00:00:05.00, start: 0.000000, bitrate: 2985989 kb/s\n  Stream #0:0: Video: rawvideo (I420 / 0x30323449), yuv420p(progressive), 1920x1080, 120 fps, 120 tbr, 120 tbn\n[out#0/mp4 @ 000001e41822a600] Codec AVOption b:a (set bitrate (in bits/s)) has not been used for any stream. The most likely reason is either wrong type (e.g. a video option with no video streams) or that it is a private option of some decoder which was not actually used for any stream.\nStream mapping:\n  Stream #0:0 -> #0:0 (rawvideo (native) -> h264 (libx264))\nPress [q] to stop, [?] for help\n[libx264 @ 000001e41822ca80] using cpu capabilities: MMX2 SSE2Fast SSSE3 SSE4.2 AVX FMA3 BMI2 AVX2\n[libx264 @ 000001e41822ca80] profile High, level 5.1, 4:2:0, 8-bit\n[libx264 @ 000001e41822ca80] 264 - core 165 r3222 b35605a - H.264/MPEG-4 AVC codec - Copyleft 2003-2025 - http://www.videolan.org/x264.html - options: cabac=1 ref=5 deblock=1:0:0 analyse=0x3:0x113 me=hex subme=8 psy=1 psy_rd=1.00:0.00 mixed_ref=1 me_range=16 chroma_me=1 trellis=2 8x8dct=1 cqm=0 deadzone=21,11 fast_pskip=1 chroma_qp_offset=-2 threads=18 lookahead_threads=3 sliced_threads=0 nr=0 decimate=1 interlaced=0 bluray_compat=0 constrained_intra=0 bframes=3 b_pyramid=2 b_adapt=1 b_bias=0 direct=3 weightb=1 open_gop=0 weightp=2 keyint=250 keyint_min=25 scenecut=40 intra_refresh=0 rc_lookahead=50 rc=cbr mbtree=1 bitrate=2000 ratetol=1.0 qcomp=0.60 qpmin=0 qpmax=69 qpstep=4 vbv_maxrate=2000 vbv_bufsize=2000 nal_hrd=none filler=0 ip_ratio=1.40 aq=1:1.00\nOutput #0, mp4, to 'C:\\Users\\Peter\\Desktop\\stuff\\MIUN\\quantitative_research\\video_compression\\compressed_videos\\UVG\\h264\\2\\Beauty_1920x1080_120fps_420_8bit_YUV_h264.mp4':\n  Metadata:\n    encoder         : Lavf62.3.100\n  Stream #0:0: Video: h264 (avc1 / 0x31637661), yuv420p(tv, progressive), 1920x1080, q=2-31, 2000 kb/s, 120 fps, 15360 tbn\n    Metadata:\n      encoder         : Lavc62.11.100 libx264\n    Side data:\n      cpb: bitrate max/min/avg: 2000000/0/2000000 buffer size: 2000000 vbv_delay: N/A\nframe=    0 fps=0.0 q=0.0 size=       0KiB time=N/A bitrate=N/A speed=N/A elapsed=0:00:00.51    \nframe=   32 fps= 31 q=44.0 size=       0KiB time=00:00:00.25 bitrate=   1.5kbits/s speed=0.244x elapsed=0:00:01.02    \nframe=   66 fps= 43 q=44.0 size=       0KiB time=00:00:00.53 bitrate=   0.7kbits/s speed=0.345x elapsed=0:00:01.54    \nframe=   77 fps= 37 q=44.0 size=       0KiB time=00:00:00.62 bitrate=   0.6kbits/s speed=0.303x elapsed=0:00:02.06    \nframe=   99 fps= 39 q=44.0 size=       0KiB time=00:00:00.80 bitrate=   0.5kbits/s speed=0.315x elapsed=0:00:02.56    \nframe=  120 fps= 39 q=44.0 size=       0KiB time=00:00:00.98 bitrate=   0.4kbits/s speed=0.319x elapsed=0:00:03.08    \nframe=  141 fps= 39 q=44.0 size=       0KiB time=00:00:01.15 bitrate=   0.3kbits/s speed=0.322x elapsed=0:00:03.59    \nframe=  163 fps= 40 q=44.0 size=     256KiB time=00:00:01.34 bitrate=1563.4kbits/s speed=0.326x elapsed=0:00:04.12    \nframe=  185 fps= 40 q=45.0 size=     256KiB time=00:00:01.52 bitrate=1375.4kbits/s speed=0.328x elapsed=0:00:04.64    \nframe=  207 fps= 40 q=45.0 size=     256KiB time=00:00:01.70 bitrate=1227.8kbits/s speed=0.332x elapsed=0:00:05.15    \nframe=  228 fps= 40 q=45.0 size=     256KiB time=00:00:01.88 bitrate=1113.7kbits/s speed=0.333x elapsed=0:00:05.66    \nframe=  277 fps= 45 q=44.0 size=     256KiB time=00:00:02.29 bitrate= 915.3kbits/s speed=0.371x elapsed=0:00:06.17    \nframe=  329 fps= 49 q=44.0 size=     512KiB time=00:00:02.72 bitrate=1539.3kbits/s speed=0.407x elapsed=0:00:06.69    \nframe=  349 fps= 48 q=41.0 size=     512KiB time=00:00:02.89 bitrate=1450.6kbits/s speed= 0.4x elapsed=0:00:07.22    \nframe=  401 fps= 52 q=44.0 size=     512KiB time=00:00:03.32 bitrate=1261.6kbits/s speed=0.43x elapsed=0:00:07.72    \nframe=  449 fps= 54 q=44.0 size=     768KiB time=00:00:03.72 bitrate=1689.1kbits/s speed=0.452x elapsed=0:00:08.24    \nframe=  466 fps= 53 q=44.0 size=     768KiB time=00:00:03.86 bitrate=1627.2kbits/s speed=0.441x elapsed=0:00:08.76    \nframe=  486 fps= 52 q=45.0 size=     768KiB time=00:00:04.03 bitrate=1560.0kbits/s speed=0.435x elapsed=0:00:09.27    \nframe=  507 fps= 52 q=45.0 size=     768KiB time=00:00:04.20 bitrate=1495.1kbits/s speed=0.43x elapsed=0:00:09.79    \nframe=  529 fps= 51 q=44.0 size=     768KiB time=00:00:04.39 bitrate=1432.7kbits/s speed=0.426x elapsed=0:00:10.30    \n[mp4 @ 000001e41822b700] Starting second pass: moving the moov atom to the beginning of the file\n[out#0/mp4 @ 000001e41822a600] video:1139KiB audio:0KiB subtitle:0KiB other streams:0KiB global headers:0KiB muxing overhead: 0.495440%\nframe=  600 fps= 56 q=-1.0 Lsize=    1145KiB time=00:00:04.98 bitrate=1881.8kbits/s speed=0.463x elapsed=0:00:10.76    \n[libx264 @ 000001e41822ca80] frame I:3     Avg QP:41.34  size:  9251\n[libx264 @ 000001e41822ca80] frame P:367   Avg QP:42.22  size:  2304\n[libx264 @ 000001e41822ca80] frame B:230   Avg QP:43.90  size:  1271\n[libx264 @ 000001e41822ca80] consecutive B-frames: 48.7%  0.7%  0.0% 50.7%\n[libx264 @ 000001e41822ca80] mb I  I16..4: 34.0% 65.3%  0.7%\n[libx264 @ 000001e41822ca80] mb P  I16..4:  1.0%  0.5%  0.0%  P16..4: 13.6%  0.4%  0.8%  0.0%  0.0%    skip:83.7%\n[libx264 @ 000001e41822ca80] mb B  I16..4:  0.0%  0.0%  0.0%  B16..8: 16.2%  0.1%  0.0%  direct: 0.0%  skip:83.5%  L0:31.7% L1:68.1% BI: 0.2%\n[libx264 @ 000001e41822ca80] 8x8 transform intra:44.4% inter:97.0%\n[libx264 @ 000001e41822ca80] direct mvs  spatial:95.7% temporal:4.3%\n[libx264 @ 000001e41822ca80] coded y,uvDC,uvAC intra: 5.6% 13.6% 0.1% inter: 0.3% 0.6% 0.0%\n[libx264 @ 000001e41822ca80] i16 v,h,dc,p: 21% 29%  6% 43%\n[libx264 @ 000001e41822ca80] i8 v,h,dc,ddl,ddr,vr,hd,vl,hu:  5%  3% 44%  5% 16%  6% 11%  4%  6%\n[libx264 @ 000001e41822ca80] i4 v,h,dc,ddl,ddr,vr,hd,vl,hu: 14%  4% 12% 10% 39%  7%  5%  4%  6%\n[libx264 @ 000001e41822ca80] i8c dc,h,v,p: 69% 24%  5%  2%\n[libx264 @ 000001e41822ca80] Weighted P-Frames: Y:0.0% UV:0.0%\n[libx264 @ 000001e41822ca80] ref P L0: 50.4%  8.4% 20.7%  7.0%  7.9%  5.6%\n[libx264 @ 000001e41822ca80] ref B L0: 81.7% 12.4%  4.4%  1.5%\n[libx264 @ 000001e41822ca80] ref B L1: 95.8%  4.2%\n[libx264 @ 000001e41822ca80] kb/s:1865.08\n",
  "seconds": 10.85225248336792,
  "probe_out": {}
}